<svg version="1.1" id="Layer_1" xmlns="http://www.w3.org/2000/svg" xmlns:xlink="http://www.w3.org/1999/xlink" x="0px" y="0px"
	 width="100%" viewBox="0 0 976 368" enable-background="new 0 0 976 368" xml:space="preserve">
<path fill="#000000" opacity="1.000000" stroke="none" 
	d="
M652.000122,154.646683 
	C666.332642,154.646545 680.182800,154.195160 693.994385,154.733047 
	C732.458496,156.230957 770.955017,154.625763 809.392090,155.896759 
	C843.050049,157.009689 876.686096,156.083023 910.325012,156.687302 
	C919.140015,156.845642 927.947205,157.408569 936.761963,157.622147 
	C939.712341,157.693649 941.121277,159.088394 941.190369,161.805878 
	C941.261169,164.586197 939.606018,166.054382 936.894653,166.316238 
	C922.711487,167.686081 908.519226,168.967331 894.344849,170.422394 
	C879.683411,171.927490 865.046387,173.670074 850.384521,175.170181 
	C838.846069,176.350723 827.278198,177.243057 815.737793,178.405777 
	C804.043030,179.584045 792.373413,181.012482 780.678711,182.192047 
	C769.301636,183.339600 757.899658,184.240570 746.521301,185.376236 
	C731.035400,186.921890 715.566406,188.637512 700.080688,190.185150 
	C688.699280,191.322586 677.296814,192.248749 665.914185,193.374664 
	C650.425171,194.906799 634.948914,196.567352 619.461853,198.119965 
	C608.251282,199.243835 597.028870,200.248764 585.817749,201.366989 
	C573.626465,202.583008 561.446228,203.910263 549.253662,205.112030 
	C537.705994,206.250259 526.142822,207.232864 514.596863,208.386948 
	C503.069885,209.539108 491.559479,210.856400 480.034790,212.032410 
	C468.659119,213.193207 457.271576,214.237778 445.894806,215.388336 
	C433.716431,216.619980 421.549316,217.964340 409.368408,219.169571 
	C397.987762,220.295624 386.588318,221.232864 375.210266,222.383163 
	C363.034729,223.614090 350.883209,225.084366 338.705200,226.288116 
	C327.174225,227.427887 315.616028,228.290314 304.081879,229.400467 
	C294.365112,230.335678 284.661591,231.414963 274.961700,232.514420 
	C272.707794,232.769913 271.699127,234.550110 270.891205,236.482056 
	C259.031525,264.841125 247.150284,293.191193 235.280762,321.546143 
	C233.805862,325.069519 232.560776,328.704254 230.863953,332.115662 
	C228.893661,336.076843 225.676910,336.660797 222.389221,333.651978 
	C209.386459,321.752136 196.468536,309.759583 183.525803,297.794250 
	C177.914795,292.606964 172.205170,287.518799 166.761124,282.161255 
	C163.528961,278.980469 160.469574,279.738464 156.820267,281.211182 
	C121.253571,295.564819 85.640594,309.803772 50.039101,324.071167 
	C44.798744,326.171234 39.519382,328.177551 34.317154,330.367615 
	C31.727396,331.457855 29.505442,331.554901 27.706041,329.092499 
	C25.700825,326.348389 27.451054,324.600037 29.258322,322.661194 
	C56.188648,293.770416 84.644562,266.384888 112.407608,238.316238 
	C117.917130,232.746094 118.216316,231.766449 113.338837,225.839050 
	C102.364471,212.502411 91.177437,199.340317 80.035805,186.141937 
	C73.926384,178.904709 67.662239,171.797256 61.603935,164.518051 
	C57.790985,159.936661 59.272793,155.926041 64.988396,154.847076 
	C65.800713,154.693710 66.649986,154.640549 67.476822,154.673782 
	C85.293602,155.389908 103.064270,153.789627 120.861519,153.475662 
	C135.824509,153.211670 150.827911,153.283401 165.745880,152.397720 
	C176.068863,151.784851 186.356323,151.838348 196.657822,151.678680 
	C201.127304,151.609390 204.556793,150.006775 207.769989,146.974609 
	C229.677933,126.300735 251.580261,105.618523 273.701630,85.174080 
	C288.105408,71.862198 302.521576,58.569427 316.801666,45.123669 
	C321.868988,40.352417 326.749634,35.307247 332.248871,30.993620 
	C334.311340,29.375839 336.557343,27.508314 339.419800,29.530699 
	C342.295288,31.562328 341.202179,34.148293 340.356506,36.722980 
	C331.032074,65.111801 321.713348,93.502518 312.421051,121.901871 
	C310.045166,129.163147 307.749664,136.450943 305.451263,143.737274 
	C303.850128,148.813202 305.012451,150.239059 310.345398,150.660477 
	C327.473206,152.013916 344.627930,151.586777 361.776123,151.622116 
	C374.442017,151.648239 387.120422,151.265228 399.771576,151.698257 
	C438.566711,153.026169 477.393463,151.769318 516.164307,152.914154 
	C548.483887,153.868530 580.789490,152.780167 613.075317,153.804932 
	C625.885498,154.211533 638.685852,154.606842 652.000122,154.646683 
z"/>
</svg>