<?xml version="1.0" encoding="UTF-8"?>
<svg xmlns="http://www.w3.org/2000/svg" viewBox="0 0 277.16 263.3">
  <path fill="orange" d="M149.41,6.7l33.46,67.43c1.76,3.55,5.16,6,9.1,6.57l74.83,10.81c9.91,1.43,13.87,13.54,6.7,20.49l-54.15,52.49c-2.85,2.76-4.15,6.74-3.47,10.63l12.78,74.11c1.69,9.81-8.67,17.3-17.53,12.66l-66.93-34.99c-3.52-1.84-7.72-1.84-11.24,0l-66.93,34.99c-8.86,4.63-19.22-2.85-17.53-12.66l12.78-74.11c.67-3.9-.63-7.87-3.47-10.63L3.66,112c-7.17-6.95-3.21-19.06,6.7-20.49l74.83-10.81c3.93-.57,7.34-3.03,9.1-6.57L127.75,6.7c4.43-8.93,17.24-8.93,21.67,0Z"/>
</svg>
